<svg width="24" height="24" viewBox="0 0 24 24" fill="none" xmlns="http://www.w3.org/2000/svg">
<path fill-rule="evenodd" clip-rule="evenodd" d="M16 10C16 12.2091 14.2091 14 12 14C9.79086 14 8 12.2091 8 10C8 7.79086 9.79086 6 12 6C14.2091 6 16 7.79086 16 10ZM14.5 10C14.5 11.3807 13.3807 12.5 12 12.5C10.6193 12.5 9.5 11.3807 9.5 10C9.5 8.61929 10.6193 7.5 12 7.5C13.3807 7.5 14.5 8.61929 14.5 10Z" fill="white"/>
<path fill-rule="evenodd" clip-rule="evenodd" d="M12 22C17.5228 22 22 17.5228 22 12C22 6.47715 17.5228 2 12 2C6.47715 2 2 6.47715 2 12C2 17.5228 6.47715 22 12 22ZM12 20.5C13.7487 20.5 15.3741 19.9719 16.7254 19.0665C13.8146 17.3358 10.1854 17.3358 7.27459 19.0665C8.62587 19.9719 10.2513 20.5 12 20.5ZM6.04701 18.0673C9.65326 15.6689 14.3467 15.6689 17.953 18.0673C19.5249 16.5248 20.5 14.3763 20.5 12C20.5 7.30558 16.6944 3.5 12 3.5C7.30558 3.5 3.5 7.30558 3.5 12C3.5 14.3763 4.4751 16.5248 6.04701 18.0673Z" fill="white"/>
</svg>
